<svg width="61" height="71" viewBox="0 0 61 71" fill="none" xmlns="http://www.w3.org/2000/svg">
<path d="M19.1617 12.4514L12.816 22.0063L14.4936 30.5402L7.49153 25.7991L1 28.7167V37.5423L7.49153 45.4196L13.2537 45.8572L16.9735 44.3255L17.9947 51.3276L41.9915 51.7653L44.3984 41.3351L50.5982 40.3869L54.7557 33.3848L55.7768 26.4556L47.3889 24.8509L45.1278 26.8203L44.7631 22.9545L59.3508 14.056V7.3457L58.7673 5.4493L56.2874 1.80237L47.9724 2.96938L41.9915 11.9408L39.5845 9.09622L32.2177 7.3457L20.1099 11.3573L19.1617 12.4514Z" fill="white"/>
<path d="M44.3984 40.6782V41.3347L48.1183 40.7512L44.3984 40.6782Z" fill="#6A6A6A"/>
<path d="M37.3963 50.5249C37.513 50.4666 38.4175 43.9362 38.8551 40.6782C38.6801 46.0465 38.15 49.4795 37.9069 50.5249C37.6881 50.5493 37.2796 50.5833 37.3963 50.5249Z" fill="#6A6A6A"/>
<path d="M30.3213 50.5249C30.6714 49.8247 31.1966 46.3918 31.4154 44.7628C31.7655 47.797 31.7558 49.8685 31.7071 50.5249H30.3213Z" fill="#6A6A6A"/>
<path d="M24.1215 50.5249C23.9465 50.2915 23.9513 45.8083 23.9756 43.5958C24.209 47.5636 24.705 49.8685 24.9238 50.5249C24.7293 50.6222 24.2966 50.7583 24.1215 50.5249Z" fill="#6A6A6A"/>
<path d="M16.8277 43.7417C18.4031 46.7176 20.7907 49.6011 21.7875 50.6708H17.9947L16.9735 44.3252L13.2537 45.8569L9.24205 45.5651L12.816 45.4192L16.8277 43.7417Z" fill="#6A6A6A"/>
<path d="M1.87526 36.229L8.73149 45.4192H7.56447L1 37.6148V28.5704C1 30.0292 1.63213 34.4542 1.87526 36.229Z" fill="#6A6A6A"/>
<path d="M12.7431 22.1519L14.6395 19.3073L14.3478 30.321L12.7431 22.1519Z" fill="#6A6A6A"/>
<path d="M43.4502 50.3064H17.8488V55.6309H19.2346L22.3709 69.9998H40.2409L42.6479 55.6309H43.4502V50.3064Z" fill="white"/>
<path d="M20.4746 24.924L22.6628 21.2771L27.2579 21.1312L29.5919 23.1006L31.3425 21.1312L35.0623 21.2771L38.7822 25.2158L36.9587 29.3003L32.6553 30.3944L31.0507 28.9356L27.6226 31.8532L23.4651 31.1967L20.4746 28.0604V24.924Z" fill="white"/>
<path d="M24.778 53.6619C24.5446 53.3702 24.6807 51.5953 24.778 50.7444H40.6057C40.0465 51.2063 38.4904 52.3636 36.7399 53.2972C34.5518 54.4642 32.8742 54.3184 31.2695 54.6101C29.6649 54.9019 30.0296 54.0266 27.5497 54.3184C25.0697 54.6101 25.0697 54.0266 24.778 53.6619Z" fill="#E8E8EA"/>
<path d="M36.5211 59.6429C37.8632 60.3431 40.63 60.664 41.8456 60.737L42.6479 55.8501H36.7399L20.4017 56.7253L22.9545 69.9272H40.168L40.6057 66.2803H39.1469H31.853C30.9778 66.1344 29.1105 65.7843 28.6437 65.5509C28.0602 65.2592 27.5497 63.8733 26.9661 63.5816C26.3826 63.2898 25.945 62.8522 24.6321 62.8522C23.3192 62.8522 23.2463 63.5816 22.9545 63.5816C22.7211 63.5816 22.7114 63.0953 22.7357 62.8522C22.6385 62.5361 22.6044 61.9769 23.2463 62.2687C23.8881 62.5604 24.7294 62.5361 25.0697 62.4875C25.8867 62.6625 27.2579 60.664 27.8414 59.6429C29.5919 60.168 31.4397 59.8617 32.1448 59.6429C33.0444 59.3511 35.179 58.9427 36.5211 59.6429Z" fill="#E8E8EA"/>
<path d="M20.037 55.4125L18.7241 50.7444H18.2135H17.7029V55.4125H20.037Z" fill="#C5C5C5"/>
<path d="M35.6458 55.8524H19.1617L22.2981 69.9272H23.4651L21.1311 57.0376L35.6458 55.8524Z" fill="#C5C5C5"/>
<path d="M30.7589 60.2989H41.8456L40.7515 66.5716H30.7589C30.0538 66.45 28.6437 65.6526 28.6437 63.4352C28.5853 61.2179 30.0295 60.4205 30.7589 60.2989Z" fill="#6A6A6A"/>
<path d="M44.6174 19.5264L59.1321 15.6606L59.5698 7.27271L56.944 1H48.0455L40.8975 14.4207M44.6174 19.5264L45.2009 26.9661L47.5349 24.8509L52.9323 26.9661V34.3329L49.5042 40.3139L44.0338 38.5633L40.8975 50.3794H43.6692V55.7768H42.648M44.6174 19.5264L40.8975 14.4207M42.648 55.7768L40.1681 69.9999H22.2252L19.0889 55.7768M42.648 55.7768H19.0889M19.0889 55.7768H17.703V50.3794H19.8912L16.8278 41.9915L13.1079 45.4196H6.10581L1.43774 38.5633L3.77178 28.7166L8.58572 26.3097L14.4937 30.4672L12.1597 19.0888L19.8912 11.649L33.8954 9.02324L40.8975 14.4207M22.6629 21.131L20.5476 24.8509V28.1331L23.5381 31.4154L27.8415 31.9989L31.0508 29.3002L32.6554 30.7589L37.1776 29.3002L38.9281 24.8509L35.1353 21.131H31.0508L29.4461 22.9545L27.3309 21.131H22.6629Z" stroke="black"/>
<path d="M19.8182 50.3795H41.1162" stroke="black"/>
<path d="M26.3097 27.1847C26.3097 26.6596 27.0391 26.1393 27.4038 25.9448C28.0457 25.7114 28.2791 25.7989 28.6438 25.8718C29.0085 25.9448 29.519 26.3824 29.7378 26.893C29.8108 27.3306 29.8837 28.3809 29.592 29.0811C29.2273 29.9564 28.6438 29.8105 28.2061 29.8105C27.856 29.8105 27.3795 29.4701 27.185 29.2999C26.9662 29.1054 26.4994 28.6289 26.3827 28.2788C26.2368 27.8412 26.3097 27.8412 26.3097 27.1847Z" fill="black"/>
<path d="M30.9777 26.528C31.1528 26.0028 31.4558 25.6498 31.9989 25.4339C32.8887 25.0802 34.0412 25.7256 34.26 26.3821C34.4788 27.0385 34.5517 27.4032 34.3329 27.9867C34.1141 28.5702 32.9471 28.7161 32.9471 28.7161C32.1974 28.7747 31.4883 28.2299 31.1966 27.9138C31.0507 27.6707 30.8027 27.0531 30.9777 26.528Z" fill="black"/>
<path d="M7.12683 32.9467C7.4429 34.4055 8.77524 38.067 11.5761 41.0429C10.7008 39.9488 8.5856 36.7979 7.12683 32.9467Z" fill="#454545"/>
<path d="M50.6711 29.8103C50.4766 30.4182 49.7229 31.7651 48.2642 32.2903C48.7018 32.0471 49.7959 31.2108 50.6711 29.8103Z" fill="#454545"/>
<path d="M53.6616 7.41821C52.6891 8.85267 50.0293 12.1592 47.1701 13.9097C48.3857 12.8643 51.3859 10.1024 53.6616 7.41821Z" fill="#454545"/>
<path d="M22.5898 12.9615C22.3224 13.5207 21.8312 15.1643 22.0063 17.2649C22.0306 16.4626 22.1813 14.4787 22.5898 12.9615Z" fill="#454545"/>
<path d="M33.4576 13.1804C34.0898 13.5207 35.2957 15.0768 35.0623 18.5778C35.3784 16.9975 35.4999 13.7055 33.4576 13.1804Z" fill="#454545"/>
<path d="M24.3403 36.5939C24.8752 37.1288 26.6014 39.1468 29.5919 38.7092C26.3097 38.0331 25.2739 37.3525 24.3403 36.5939Z" fill="black"/>
<path d="M35.4794 61.1053H36.6954V62.129H35.6883C35.3408 62.129 35.2995 62.4351 35.3222 62.5881C35.2991 63.0431 35.8158 63.081 36.0771 63.0431V64.0357L35.2767 65.624H33.8953L34.8776 63.8806C34.3724 63.6971 34.2106 63.3059 34.1604 63.1848L34.16 63.1837C34.1103 63.0637 34.0545 62.646 34.0648 62.5074C34.0752 62.3689 34.04 61.8333 34.4081 61.4424C34.7026 61.1297 35.245 61.0874 35.4794 61.1053Z" fill="white"/>
<path fill-rule="evenodd" clip-rule="evenodd" d="M36.6996 61.1051H39.0489C39.4701 61.0769 40.3195 61.2677 40.3476 62.257C40.3828 63.4937 40.2049 63.6943 39.781 63.9032C39.6645 63.9508 39.3012 64.0438 38.78 64.0356C38.2589 64.0273 37.1759 64.0321 36.6996 64.0356V61.1051ZM36.6996 64.5464H37.775V65.6238H36.6996V64.5464ZM37.7668 62.126V63.036H38.6085C38.9414 63.036 39.1317 63.0193 39.142 62.6223C39.1541 62.1546 38.8262 62.137 38.6373 62.1268C38.6324 62.1265 38.6276 62.1263 38.6229 62.126H37.7668Z" fill="#2A2A2A"/>
<path d="M38.1646 64.9117H38.018V65.2881H37.9432V64.9117H37.7994V64.8511H38.1646V64.9117Z" fill="#2A2A2A"/>
<path d="M38.3851 65.1787L38.4869 64.8511H38.5669L38.3912 65.3556C38.364 65.4283 38.3208 65.4646 38.2615 65.4646L38.2474 65.4634L38.2195 65.4582V65.3976L38.2397 65.3992C38.265 65.3992 38.2847 65.3941 38.2987 65.3838C38.313 65.3736 38.3247 65.3549 38.3338 65.3277L38.3504 65.2833L38.1945 64.8511H38.2761L38.3851 65.1787Z" fill="#2A2A2A"/>
<path d="M38.6077 65.2271L38.6335 65.1952C38.6626 65.1575 38.6792 65.101 38.6832 65.0256L38.6901 64.8511H38.9716V65.2271H39.0278V65.4166H38.953V65.2881H38.6481V65.4166H38.5733L38.5737 65.2271H38.6077ZM38.6961 65.2271H38.8969V64.9201H38.7624L38.7579 65.0244C38.7534 65.1113 38.7328 65.1789 38.6961 65.2271Z" fill="#2A2A2A"/>
<path d="M39.3933 64.8511H39.468V65.2881H39.3933V64.9694L39.1917 65.2881H39.117V64.8511H39.1917V65.1702L39.3933 64.8511Z" fill="#2A2A2A"/>
<path d="M39.922 64.8511V65.2881H39.8469V65.1181H39.7342L39.6312 65.2881H39.5504L39.6603 65.1068C39.6323 65.0965 39.6107 65.0808 39.5957 65.0595C39.5808 65.038 39.5734 65.0129 39.5734 64.9844C39.5734 64.9445 39.5884 64.9125 39.6183 64.8882C39.6482 64.8637 39.6882 64.8513 39.7382 64.8511H39.922ZM39.6486 64.9852C39.6486 65.0064 39.6558 65.0237 39.6704 65.0369C39.6849 65.0498 39.7042 65.0564 39.7281 65.0567H39.8469V64.9117H39.7395C39.7117 64.9117 39.6896 64.9185 39.6732 64.9323C39.6568 64.9457 39.6486 64.9634 39.6486 64.9852Z" fill="#2A2A2A"/>
<path d="M37.5146 65.2353C37.5412 65.2353 37.5645 65.2273 37.5845 65.2111C37.6044 65.195 37.6154 65.1748 37.6176 65.1505H37.6883C37.6869 65.1756 37.6783 65.1994 37.6624 65.222C37.6465 65.2446 37.6252 65.2627 37.5986 65.2761C37.5722 65.2896 37.5442 65.2963 37.5146 65.2963C37.4551 65.2963 37.4077 65.2765 37.3724 65.237C37.3374 65.1971 37.3199 65.1427 37.3199 65.0738V65.0613C37.3199 65.0187 37.3277 64.9809 37.3433 64.9478C37.3589 64.9146 37.3813 64.8889 37.4104 64.8706C37.4397 64.8523 37.4743 64.8431 37.5142 64.8431C37.5632 64.8431 37.6038 64.8578 37.6362 64.8872C37.6687 64.9165 37.6861 64.9546 37.6883 65.0015H37.6176C37.6154 64.9732 37.6046 64.95 37.5853 64.932C37.5661 64.9137 37.5424 64.9045 37.5142 64.9045C37.4762 64.9045 37.4467 64.9183 37.4257 64.9457C37.405 64.9729 37.3946 65.0124 37.3946 65.0641V65.0782C37.3946 65.1286 37.405 65.1674 37.4257 65.1945C37.4464 65.2217 37.4761 65.2353 37.5146 65.2353Z" fill="white"/>
</svg>
