<svg width="53" height="15" viewBox="0 0 53 15" fill="none" xmlns="http://www.w3.org/2000/svg">
<path d="M34.1936 7.5C34.1936 11.6458 30.7528 15 26.5 15C22.2472 15 18.8065 11.6458 18.8065 7.5C18.8065 3.35417 22.2472 0 26.5 0C30.7528 0 34.1936 3.35417 34.1936 7.5ZM45.3065 0C41.0536 0 37.6129 3.35417 37.6129 7.5C37.6129 11.6458 41.0536 15 45.3065 15C49.5593 15 53 11.6458 53 7.5C53 3.35417 49.5593 0 45.3065 0ZM7.69355 0C3.44073 0 0 3.35417 0 7.5C0 11.6458 3.44073 15 7.69355 15C11.9464 15 15.3871 11.6458 15.3871 7.5C15.3871 3.35417 11.9464 0 7.69355 0Z" fill="#83D024"/>
</svg>
