<svg width="46" height="36" viewBox="0 0 46 36" fill="none" xmlns="http://www.w3.org/2000/svg">
<path d="M45.1285 11.8875C45.4789 11.5969 46 11.8687 46 12.3281V31.5C46 33.9844 44.0684 36 41.6875 36H4.3125C1.93164 36 0 33.9844 0 31.5L0 12.3375C0 11.8688 0.512109 11.6062 0.871484 11.8969C2.88398 13.5281 5.55234 15.6 14.7164 22.5469C16.6121 23.9906 19.8105 27.0281 23 27.0094C26.2074 27.0375 29.4687 23.9344 31.2926 22.5469C40.4566 15.6 43.116 13.5188 45.1285 11.8875ZM23 24C25.0844 24.0375 28.0852 21.2625 29.5945 20.1188C41.5168 11.0906 42.4242 10.3031 45.1734 8.05312C45.6945 7.63125 46 6.975 46 6.28125V4.5C46 2.01563 44.0684 0 41.6875 0L4.3125 0C1.93164 0 0 2.01562 0 4.5L0 6.28125C0 6.975 0.305469 7.62187 0.826562 8.05312C3.57578 10.2937 4.4832 11.0906 16.4055 20.1188C17.9148 21.2625 20.9156 24.0375 23 24Z" fill="white"/>
</svg>
