<svg width="38" height="38" viewBox="0 0 38 38" fill="none" xmlns="http://www.w3.org/2000/svg">
<path d="M36.6196 1.82655L28.901 0.0453329C28.0623 -0.147632 27.2014 0.29025 26.86 1.07695L23.2976 9.38928C22.9859 10.1166 23.1937 10.9701 23.8097 11.4674L28.3072 15.1485C25.6354 20.841 20.9671 25.576 15.1559 28.2998L11.4748 23.8023C10.9701 23.1863 10.124 22.9784 9.39668 23.2902L1.08434 26.8526C0.29022 27.2014 -0.147661 28.0623 0.0453034 28.901L1.82652 36.6196C2.01206 37.4211 2.72455 38 3.5632 38C22.5702 38 38 22.5999 38 3.56323C38 2.732 37.4285 2.01209 36.6196 1.82655Z" fill="white"/>
</svg>
