<svg width="49" height="49" viewBox="0 0 49 49" fill="none" xmlns="http://www.w3.org/2000/svg">
<path d="M24.2552 37.9291C16.1486 37.9291 12.5276 33.9521 12.5276 30.9678C12.5276 29.4305 13.658 28.3634 15.2136 28.3634C18.6856 28.3634 17.7788 33.3412 24.2552 33.3412C27.5619 33.3412 29.3935 31.5426 29.3935 29.7018C29.3935 28.5945 28.8515 27.3707 26.6652 26.8301L19.4593 25.0315C13.656 23.5765 12.6021 20.4376 12.6021 17.4935C12.6021 11.3703 18.3672 9.0713 23.7836 9.0713C28.7628 9.0713 34.6508 11.8305 34.6508 15.5C34.6508 17.0755 33.2645 17.9919 31.7229 17.9919C28.7628 17.9919 29.3089 13.8983 23.3323 13.8983C20.3722 13.8983 18.7138 15.2327 18.7138 17.1479C18.7138 19.063 21.0371 19.6759 23.0602 20.1361L28.3739 21.3158C34.1994 22.62 35.6765 26.0303 35.6765 29.2416C35.6765 34.2173 31.8439 37.9311 24.1464 37.9311L24.2552 37.9291ZM46.4812 28.1202L46.4227 28.3915L46.3341 27.9092C46.3643 27.9997 46.4227 28.0579 46.453 28.1504C46.6948 26.7939 46.8177 25.4113 46.8177 24.0267C46.8177 20.954 46.2112 17.9738 45.0082 15.1443C43.8616 12.4354 42.1972 9.99572 40.1176 7.9178C38.0039 5.84189 35.5898 4.18799 32.8735 3.04252C30.2177 1.77447 27.2294 1.1736 24.1524 1.1736C22.7016 1.1736 21.2427 1.31427 19.8341 1.58356L20.0739 1.70414L19.5923 1.63782L19.8321 1.58758C17.8896 0.550629 15.7114 0 13.4988 0C9.8939 0 6.5066 1.4027 3.95554 3.95287C1.40449 6.50103 0 9.89323 0 13.4964C0 15.7934 0.588395 18.0482 1.7007 20.0437L1.741 19.7945L1.82362 20.2748L1.70272 20.0437C1.473 21.3399 1.35613 22.6541 1.35613 23.9724C1.35613 27.0471 1.96064 30.0354 3.13743 32.8468C4.28198 35.5839 5.91417 38.0235 8.02796 40.0994C10.1115 42.2095 12.5558 43.8312 15.2721 45.0069C18.0811 46.2126 21.0694 46.8115 24.1464 46.8115C25.4743 46.8115 26.8344 46.6909 28.1301 46.4517L27.8903 46.3272L28.3739 46.4196L28.1019 46.4799C30.121 47.6233 32.3859 48.2302 34.7395 48.2302C38.3323 48.2302 41.7095 46.8436 44.2767 44.2854C46.8137 41.7553 48.2302 38.3551 48.2302 34.7418C48.2302 32.4549 47.6277 30.1961 46.5114 28.1785" fill="white"/>
</svg>
