<svg width="43" height="45" viewBox="0 0 43 45" fill="none" xmlns="http://www.w3.org/2000/svg">
<path d="M20.3653 0.00366491C16.7312 0.0524151 8.91179 0.644917 4.53766 4.62556C1.29057 7.83182 0.155977 12.5587 0.0238277 18.4125C-0.0894429 24.2437 -0.221592 35.1938 10.407 38.1769V42.7144C10.407 42.7144 10.3352 44.5332 11.5434 44.9082C13.0348 45.3769 13.8844 43.9726 15.3003 42.4726L17.9432 39.51C25.2114 40.11 30.7806 38.7244 31.4224 38.5182C32.8949 38.0494 41.2033 36.9975 42.5626 26.0456C43.9596 14.7375 41.883 7.61244 38.145 4.38743L38.1262 4.38368C36.9934 3.35243 32.4626 0.0711651 22.3249 0.033665C22.3249 0.033665 21.5773 -0.0132101 20.3653 0.00366491ZM20.4918 3.18555C21.5207 3.17993 22.1531 3.22305 22.1531 3.22305C30.7239 3.2418 34.8224 5.81056 35.7852 6.67306C38.9379 9.35245 40.5577 15.7781 39.3721 25.2206C38.2394 34.3707 31.4998 34.9519 30.2538 35.3457C29.7253 35.5144 24.8169 36.7144 18.6398 36.3207C18.6398 36.3207 14.0354 41.8351 12.6006 43.2601C12.3741 43.5038 12.1098 43.5788 11.9399 43.5413C11.6945 43.4851 11.619 43.1851 11.6378 42.7726L11.6756 35.2369C2.6687 32.7619 3.19729 23.4206 3.29168 18.5456C3.40495 13.6706 4.33 9.67307 7.06737 6.97306C10.7619 3.6543 17.4033 3.2043 20.4899 3.18555H20.4918ZM21.1714 8.06057C21.0972 8.06032 21.0236 8.07464 20.9548 8.1027C20.8861 8.13076 20.8237 8.17202 20.7711 8.22411C20.7185 8.27619 20.6767 8.33808 20.6482 8.40622C20.6197 8.47436 20.6051 8.54741 20.6051 8.62119C20.6051 8.77038 20.6648 8.91345 20.771 9.01894C20.8772 9.12443 21.0212 9.18369 21.1714 9.18369C22.5749 9.1571 23.9699 9.40686 25.2757 9.91855C26.5815 10.4302 27.7723 11.1937 28.7794 12.165C30.8372 14.1525 31.8396 16.815 31.8774 20.3025C31.8774 20.3763 31.892 20.4495 31.9205 20.5177C31.949 20.586 31.9907 20.648 32.0433 20.7002C32.0959 20.7525 32.1583 20.7939 32.227 20.8222C32.2957 20.8504 32.3694 20.865 32.4437 20.865V20.8481C32.594 20.8481 32.738 20.7888 32.8442 20.6834C32.9504 20.5779 33.0101 20.4348 33.0101 20.2856C33.0801 18.6455 32.8133 17.0084 32.2258 15.474C31.6384 13.9396 30.7426 12.5401 29.5931 11.3606C27.3466 9.18557 24.511 8.06057 21.1696 8.06057H21.1714ZM13.7069 9.35432C13.3054 9.2975 12.8964 9.37677 12.5459 9.57932H12.5232C11.7492 10.0293 11.0356 10.5918 10.356 11.3418C9.84627 11.9418 9.56121 12.54 9.48569 13.1212C9.44127 13.4621 9.47351 13.8085 9.58009 14.1356L9.61784 14.1543C10.1997 15.8534 10.959 17.4873 11.8833 19.0294C13.0813 21.189 14.5532 23.1872 16.2631 24.975L16.3197 25.05L16.3952 25.1062L16.4518 25.1625L16.5085 25.2187C18.3156 26.9212 20.3328 28.3892 22.5118 29.5875C25.0038 30.9375 26.5178 31.575 27.424 31.8375V31.8563C27.6883 31.9313 27.9299 31.9688 28.1753 31.9688C28.9488 31.9127 29.6812 31.6012 30.2557 31.0838C30.992 30.4275 31.5772 29.7 32.0114 28.9313V28.9125C32.4456 28.1063 32.2946 27.3356 31.6716 26.8106C30.4161 25.7197 29.0567 24.7527 27.6128 23.9231C26.65 23.3981 25.6683 23.7169 25.2718 24.2419L24.4223 25.3087C23.9881 25.8337 23.1952 25.7587 23.1952 25.7587L23.1726 25.7775C17.2825 24.2775 15.7156 18.3543 15.7156 18.3543C15.7156 18.3543 15.6401 17.5481 16.1875 17.1356L17.2447 16.2918C17.7544 15.8793 18.1131 14.9043 17.5657 13.9481C16.7315 12.5132 15.7578 11.163 14.6584 9.91682C14.4192 9.62225 14.0816 9.42266 13.7069 9.35432ZM22.1512 11.0231C22.001 11.0236 21.8572 11.0833 21.7513 11.1892C21.6455 11.295 21.5863 11.4383 21.5868 11.5875C21.5873 11.7366 21.6474 11.8795 21.754 11.9847C21.8605 12.0898 22.0048 12.1486 22.155 12.1481C24.0443 12.1806 25.8434 12.9561 27.1578 14.3043C27.7508 14.9541 28.2067 15.7152 28.4985 16.5429C28.7903 17.3705 28.9122 18.2479 28.8568 19.1231C28.8573 19.272 28.9172 19.4146 29.0234 19.5196C29.1296 19.6247 29.2733 19.6837 29.4232 19.6837L29.4421 19.7062C29.5166 19.7062 29.5904 19.6916 29.6593 19.6632C29.7281 19.6348 29.7906 19.5932 29.8432 19.5408C29.8958 19.4884 29.9375 19.4261 29.9659 19.3577C29.9942 19.2892 30.0087 19.2159 30.0084 19.1419C30.0651 16.9106 29.3666 15.0356 27.9884 13.5356C26.6103 12.0356 24.6847 11.1918 22.2305 11.0231C22.2041 11.0212 22.1776 11.0212 22.1512 11.0231ZM23.0763 14.0587C23.0005 14.0565 22.9251 14.0691 22.8543 14.0959C22.7834 14.1226 22.7186 14.1629 22.6635 14.2146C22.6084 14.2662 22.564 14.3281 22.5329 14.3967C22.5019 14.4654 22.4848 14.5394 22.4825 14.6146C22.4803 14.6899 22.493 14.7648 22.5199 14.8351C22.5469 14.9055 22.5875 14.9699 22.6395 15.0246C22.6914 15.0794 22.7538 15.1234 22.8229 15.1543C22.892 15.1851 22.9666 15.2021 23.0423 15.2043C24.9113 15.2981 25.8174 16.2356 25.9307 18.1668C25.9356 18.3128 25.9974 18.4511 26.1031 18.5525C26.2088 18.654 26.3501 18.7107 26.497 18.7106H26.5159C26.592 18.7083 26.6668 18.6907 26.7359 18.659C26.8049 18.6273 26.8669 18.5821 26.918 18.5261C26.9691 18.4701 27.0083 18.4044 27.0333 18.3331C27.0583 18.2617 27.0685 18.186 27.0634 18.1106C26.9312 15.5981 25.5531 14.19 23.0989 14.0587C23.0914 14.0586 23.0838 14.0586 23.0763 14.0587Z" fill="white"/>
</svg>
